<?xml version="1.0" encoding="utf-8"?>
<!-- Svg Vector Icons : http://www.onlinewebfonts.com/icon -->
<!DOCTYPE svg PUBLIC "-//W3C//DTD SVG 1.1//EN" "http://www.w3.org/Graphics/SVG/1.1/DTD/svg11.dtd">
<svg version="1.1" xmlns="http://www.w3.org/2000/svg" xmlns:xlink="http://www.w3.org/1999/xlink" x="0px" y="0px" viewBox="0 0 256 256" enable-background="new 0 0 256 256" xml:space="preserve">
<metadata> Svg Vector Icons : http://www.onlinewebfonts.com/icon </metadata>
<g><g><path fill="#000000" d="M60.3,14.3H23.6c-7.5,0-13.6,6.1-13.6,13.6v32.5C10,67.9,16.1,74,23.6,74h36.7c7.5,0,13.6-6.1,13.6-13.6V27.9C73.9,20.4,67.8,14.3,60.3,14.3z M67.8,61.1c0,3.1-3.3,6.4-6.4,6.4h-39c-3.1,0-6.4-3.3-6.4-6.4V27.2c0-3.1,3.3-6.4,6.4-6.4h39c3.1,0,6.4,3.3,6.4,6.4V61.1L67.8,61.1z"/><path fill="#000000" d="M146.3,14.3h-36.7c-7.5,0-13.6,6.1-13.6,13.6v32.5c0,7.5,6.1,13.6,13.6,13.6h36.7c7.5,0,13.6-6.1,13.6-13.6V27.9C160,20.4,153.9,14.3,146.3,14.3z M153.8,61.1c0,3.1-3.3,6.4-6.4,6.4h-38.9c-3.1,0-6.4-3.3-6.4-6.4V27.2c0-3.1,3.3-6.4,6.4-6.4h39c3.1,0,6.4,3.3,6.4,6.4L153.8,61.1L153.8,61.1z"/><path fill="#000000" d="M232.4,14.3h-36.7c-7.5,0-13.6,6.1-13.6,13.6v32.5c0,7.5,6.1,13.6,13.6,13.6h36.7c7.5,0,13.6-6.1,13.6-13.6V27.9C246,20.4,239.9,14.3,232.4,14.3z M239.9,61.1c0,3.1-3.3,6.4-6.4,6.4h-38.9c-3.1,0-6.4-3.3-6.4-6.4V27.2c0-3.1,3.3-6.4,6.4-6.4h39c3.1,0,6.4,3.3,6.4,6.4L239.9,61.1L239.9,61.1z"/><path fill="#000000" d="M60.3,98.4H23.6c-7.5,0-13.6,6.1-13.6,13.6v32.5c0,7.5,6.1,13.6,13.6,13.6h36.7c7.5,0,13.6-6.1,13.6-13.6V112C73.9,104.4,67.8,98.4,60.3,98.4z M67.8,145.2c0,3.1-3.3,6.4-6.4,6.4h-39c-3.1,0-6.4-3.3-6.4-6.4v-33.9c0-3.1,3.3-6.4,6.4-6.4h39c3.1,0,6.4,3.3,6.4,6.4V145.2L67.8,145.2z"/><path fill="#000000" d="M146.3,98.4h-36.7c-7.5,0-13.6,6.1-13.6,13.6v32.5c0,7.5,6.1,13.6,13.6,13.6h36.7c7.5,0,13.6-6.1,13.6-13.6V112C160,104.4,153.9,98.4,146.3,98.4z M153.8,145.2c0,3.1-3.3,6.4-6.4,6.4h-38.9c-3.1,0-6.4-3.3-6.4-6.4v-33.9c0-3.1,3.3-6.4,6.4-6.4h39c3.1,0,6.4,3.3,6.4,6.4L153.8,145.2L153.8,145.2z"/><path fill="#000000" d="M232.4,98.4h-36.7c-7.5,0-13.6,6.1-13.6,13.6v32.5c0,7.5,6.1,13.6,13.6,13.6h36.7c7.5,0,13.6-6.1,13.6-13.6V112C246,104.4,239.9,98.4,232.4,98.4z M239.9,145.2c0,3.1-3.3,6.4-6.4,6.4h-38.9c-3.1,0-6.4-3.3-6.4-6.4v-33.9c0-3.1,3.3-6.4,6.4-6.4h39c3.1,0,6.4,3.3,6.4,6.4L239.9,145.2L239.9,145.2z"/><path fill="#000000" d="M60.3,182H23.6c-7.5,0-13.6,6.1-13.6,13.6v32.5c0,7.5,6.1,13.6,13.6,13.6h36.7c7.5,0,13.6-6.1,13.6-13.6v-32.5C73.9,188.1,67.8,182,60.3,182z M67.8,228.8c0,3.1-3.3,6.4-6.4,6.4h-39c-3.1,0-6.4-3.3-6.4-6.4v-33.9c0-3.1,3.3-6.4,6.4-6.4h39c3.1,0,6.4,3.3,6.4,6.4V228.8L67.8,228.8z"/><path fill="#000000" d="M146.3,182h-36.7c-7.5,0-13.6,6.1-13.6,13.6v32.5c0,7.5,6.1,13.6,13.6,13.6h36.7c7.5,0,13.6-6.1,13.6-13.6v-32.5C160,188.1,153.9,182,146.3,182z M153.8,228.8c0,3.1-3.3,6.4-6.4,6.4h-38.9c-3.1,0-6.4-3.3-6.4-6.4v-33.9c0-3.1,3.3-6.4,6.4-6.4h39c3.1,0,6.4,3.3,6.4,6.4L153.8,228.8L153.8,228.8z"/><path fill="#000000" d="M232.4,182h-36.7c-7.5,0-13.6,6.1-13.6,13.6v32.5c0,7.5,6.1,13.6,13.6,13.6h36.7c7.5,0,13.6-6.1,13.6-13.6v-32.5C246,188.1,239.9,182,232.4,182z M239.9,228.8c0,3.1-3.3,6.4-6.4,6.4h-38.9c-3.1,0-6.4-3.3-6.4-6.4v-33.9c0-3.1,3.3-6.4,6.4-6.4h39c3.1,0,6.4,3.3,6.4,6.4L239.9,228.8L239.9,228.8z"/></g></g>
</svg>