<svg viewBox="0 0 32 32" width="25" height="25" xmlns="http://www.w3.org/2000/svg" fill="#000000">
  <g id="SVGRepo_bgCarrier" stroke-width="0"></g>
  <g id="SVGRepo_tracerCarrier" stroke-linecap="round" stroke-linejoin="round"></g>
  <g id="SVGRepo_iconCarrier">
    <defs>
      <style>.cls-1{fill:#231f20;}</style>
    </defs>
    <g id="cc">
      <path class="cls-1" d="M14,23H6a3,3,0,0,1-3-3V13a3,3,0,0,1,3-3h8a1,1,0,0,1,0,2H6a1,1,0,0,0-1,1v7a1,1,0,0,0,1,1h8a1,1,0,0,1,0,2Z"></path>
      <path class="cls-1" d="M28,23H20a3,3,0,0,1-3-3V13a3,3,0,0,1,3-3h8a1,1,0,0,1,0,2H20a1,1,0,0,0-1,1v7a1,1,0,0,0,1,1h8a1,1,0,0,1,0,2Z"></path>
    </g>
  </g>
</svg>
