<svg width="96" height="124" viewBox="0 0 96 124" fill="none" xmlns="http://www.w3.org/2000/svg">
<path d="M96 0H0V124H96V0Z" fill="white"/>
<mask id="mask0" mask-type="alpha" maskUnits="userSpaceOnUse" x="0" y="0" width="96" height="124">
<path d="M90 0H6C2.68629 0 0 2.68629 0 6V118C0 121.314 2.68629 124 6 124H90C93.3137 124 96 121.314 96 118V6C96 2.68629 93.3137 0 90 0Z" fill="#4E2AB9"/>
</mask>
<g mask="url(#mask0)">
<path d="M96 0H0V124H96V0Z" fill="#EFEEEE"/>
<path fill-rule="evenodd" clip-rule="evenodd" d="M47 108.5C47 109.328 46.3284 110 45.5 110C44.6716 110 44 109.328 44 108.5V88.5C44 87.6716 44.6716 87 45.5 87C46.3284 87 47 87.6716 47 88.5V108.5ZM41 104.5C41 105.328 40.3284 106 39.5 106C38.6716 106 38 105.328 38 104.5V92.5C38 91.6716 38.6716 91 39.5 91C40.3284 91 41 91.6716 41 92.5V104.5ZM33.5 102C34.3284 102 35 101.328 35 100.5V96.5C35 95.6716 34.3284 95 33.5 95C32.6716 95 32 95.6716 32 96.5V100.5C32 101.328 32.6716 102 33.5 102ZM62.5 102C63.3284 102 64 101.328 64 100.5V96.5C64 95.6716 63.3284 95 62.5 95C61.6716 95 61 95.6716 61 96.5V100.5C61 101.328 61.6716 102 62.5 102ZM51.5 106C52.3284 106 53 105.328 53 104.5V92.5C53 91.6716 52.3284 91 51.5 91C50.6716 91 50 91.6716 50 92.5V104.5C50 105.328 50.6716 106 51.5 106ZM57.5 108C58.3284 108 59 107.328 59 106.5V90.5C59 89.6716 58.3284 89 57.5 89C56.6716 89 56 89.6716 56 90.5V106.5C56 107.328 56.6716 108 57.5 108Z" fill="#FF3C4C"/>
<path d="M59.9602 43.3453C55.7867 43.3453 52.4035 39.9686 52.4035 35.8031C52.4035 31.6377 55.7867 28.2609 59.9602 28.2609C64.1337 28.2609 67.5169 31.6377 67.5169 35.8031C67.5169 39.9686 64.1337 43.3453 59.9602 43.3453Z" fill="#CFCFCF"/>
<path d="M37.1624 43.3453C32.9889 43.3453 29.6057 39.9686 29.6057 35.8031C29.6057 31.6377 32.9889 28.2609 37.1624 28.2609C41.3359 28.2609 44.7191 31.6377 44.7191 35.8031C44.7191 39.9686 41.3359 43.3453 37.1624 43.3453Z" fill="#CFCFCF"/>
<path d="M24.8875 52.7364C23.1003 52.7364 21.6837 54.2749 22.0614 56.0183C24.6923 68.1622 35.5176 77.2609 48.4721 77.2609C61.4266 77.2609 72.2519 68.1622 74.8827 56.0183C75.2604 54.2749 73.8439 52.7364 72.0567 52.7364H24.8875Z" fill="#CFCFCF"/>
</g>
</svg>
